<mxfile host="app.diagrams.net" agent="Mozilla/5.0 (Windows NT 10.0; Win64; x64) AppleWebKit/537.36 (KHTML, like Gecko) Chrome/135.0.0.0 Safari/537.36" version="26.2.10">
  <diagram name="PÃ¡gina-1" id="dstPA0AVAE7tB00p5vMR">
    <mxGraphModel dx="2294" dy="1917" grid="1" gridSize="10" guides="1" tooltips="1" connect="1" arrows="1" fold="1" page="1" pageScale="1" pageWidth="827" pageHeight="1169" math="0" shadow="0">
      <root>
        <mxCell id="0" />
        <mxCell id="1" parent="0" />
        <mxCell id="DiJsurEuYQ1uCc_DvVhe-27" value="Chofer" style="whiteSpace=wrap;html=1;align=center;" vertex="1" parent="1">
          <mxGeometry x="140" y="123" width="100" height="40" as="geometry" />
        </mxCell>
        <mxCell id="DiJsurEuYQ1uCc_DvVhe-28" value="Colectivo" style="whiteSpace=wrap;html=1;align=center;" vertex="1" parent="1">
          <mxGeometry x="620" y="123" width="100" height="40" as="geometry" />
        </mxCell>
        <mxCell id="DiJsurEuYQ1uCc_DvVhe-29" value="Conduce" style="shape=rhombus;perimeter=rhombusPerimeter;whiteSpace=wrap;html=1;align=center;" vertex="1" parent="1">
          <mxGeometry x="350" y="115" width="120" height="60" as="geometry" />
        </mxCell>
        <mxCell id="DiJsurEuYQ1uCc_DvVhe-34" value="Turno" style="whiteSpace=wrap;html=1;align=center;" vertex="1" parent="1">
          <mxGeometry x="140" y="360" width="100" height="40" as="geometry" />
        </mxCell>
        <mxCell id="DiJsurEuYQ1uCc_DvVhe-35" value="Ramal" style="whiteSpace=wrap;html=1;align=center;" vertex="1" parent="1">
          <mxGeometry x="610" y="360" width="100" height="40" as="geometry" />
        </mxCell>
        <mxCell id="DiJsurEuYQ1uCc_DvVhe-48" value="" style="endArrow=none;html=1;rounded=0;exitX=0.5;exitY=1;exitDx=0;exitDy=0;" edge="1" parent="1" source="DiJsurEuYQ1uCc_DvVhe-52" target="DiJsurEuYQ1uCc_DvVhe-49">
          <mxGeometry relative="1" as="geometry">
            <mxPoint x="90" y="220" as="sourcePoint" />
            <mxPoint x="190" y="200" as="targetPoint" />
          </mxGeometry>
        </mxCell>
        <mxCell id="DiJsurEuYQ1uCc_DvVhe-49" value="Trabaja" style="shape=rhombus;perimeter=rhombusPerimeter;whiteSpace=wrap;html=1;align=center;" vertex="1" parent="1">
          <mxGeometry x="130" y="240" width="120" height="60" as="geometry" />
        </mxCell>
        <mxCell id="DiJsurEuYQ1uCc_DvVhe-55" value="" style="endArrow=none;html=1;rounded=0;" edge="1" parent="1" source="DiJsurEuYQ1uCc_DvVhe-49" target="DiJsurEuYQ1uCc_DvVhe-34">
          <mxGeometry relative="1" as="geometry">
            <mxPoint x="189.5" y="305" as="sourcePoint" />
            <mxPoint x="190" y="390" as="targetPoint" />
          </mxGeometry>
        </mxCell>
        <mxCell id="DiJsurEuYQ1uCc_DvVhe-56" value="1" style="edgeLabel;html=1;align=center;verticalAlign=middle;resizable=0;points=[];" vertex="1" connectable="0" parent="DiJsurEuYQ1uCc_DvVhe-55">
          <mxGeometry x="-0.1937" y="3" relative="1" as="geometry">
            <mxPoint as="offset" />
          </mxGeometry>
        </mxCell>
        <mxCell id="DiJsurEuYQ1uCc_DvVhe-58" value="" style="endArrow=none;html=1;rounded=0;exitX=0;exitY=0.5;exitDx=0;exitDy=0;" edge="1" parent="1" source="DiJsurEuYQ1uCc_DvVhe-28" target="DiJsurEuYQ1uCc_DvVhe-29">
          <mxGeometry relative="1" as="geometry">
            <mxPoint x="480" y="220" as="sourcePoint" />
            <mxPoint x="640" y="220" as="targetPoint" />
          </mxGeometry>
        </mxCell>
        <mxCell id="DiJsurEuYQ1uCc_DvVhe-59" value="N" style="resizable=0;html=1;whiteSpace=wrap;align=right;verticalAlign=bottom;" connectable="0" vertex="1" parent="DiJsurEuYQ1uCc_DvVhe-58">
          <mxGeometry x="1" relative="1" as="geometry" />
        </mxCell>
        <mxCell id="DiJsurEuYQ1uCc_DvVhe-63" value="" style="endArrow=none;html=1;rounded=0;exitX=1;exitY=0.5;exitDx=0;exitDy=0;" edge="1" parent="1" source="DiJsurEuYQ1uCc_DvVhe-27" target="DiJsurEuYQ1uCc_DvVhe-29">
          <mxGeometry relative="1" as="geometry">
            <mxPoint x="371" y="163" as="sourcePoint" />
            <mxPoint x="220" y="164" as="targetPoint" />
          </mxGeometry>
        </mxCell>
        <mxCell id="DiJsurEuYQ1uCc_DvVhe-64" value="N" style="resizable=0;html=1;whiteSpace=wrap;align=right;verticalAlign=bottom;" connectable="0" vertex="1" parent="DiJsurEuYQ1uCc_DvVhe-63">
          <mxGeometry x="1" relative="1" as="geometry" />
        </mxCell>
        <mxCell id="DiJsurEuYQ1uCc_DvVhe-65" value="" style="endArrow=none;html=1;rounded=0;exitX=0.5;exitY=1;exitDx=0;exitDy=0;" edge="1" parent="1" source="DiJsurEuYQ1uCc_DvVhe-27" target="DiJsurEuYQ1uCc_DvVhe-52">
          <mxGeometry relative="1" as="geometry">
            <mxPoint x="190" y="163" as="sourcePoint" />
            <mxPoint x="190" y="240" as="targetPoint" />
          </mxGeometry>
        </mxCell>
        <mxCell id="DiJsurEuYQ1uCc_DvVhe-52" value="1" style="text;html=1;align=center;verticalAlign=middle;resizable=0;points=[];autosize=1;strokeColor=none;fillColor=none;" vertex="1" parent="1">
          <mxGeometry x="175" y="188" width="30" height="30" as="geometry" />
        </mxCell>
        <mxCell id="DiJsurEuYQ1uCc_DvVhe-66" value="Cubre" style="shape=rhombus;perimeter=rhombusPerimeter;whiteSpace=wrap;html=1;align=center;" vertex="1" parent="1">
          <mxGeometry x="360" y="350" width="120" height="60" as="geometry" />
        </mxCell>
        <mxCell id="DiJsurEuYQ1uCc_DvVhe-67" value="" style="endArrow=none;html=1;rounded=0;entryX=1;entryY=0.5;entryDx=0;entryDy=0;exitX=0;exitY=0.5;exitDx=0;exitDy=0;" edge="1" parent="1" source="DiJsurEuYQ1uCc_DvVhe-66" target="DiJsurEuYQ1uCc_DvVhe-34">
          <mxGeometry relative="1" as="geometry">
            <mxPoint x="320" y="330" as="sourcePoint" />
            <mxPoint x="320" y="390" as="targetPoint" />
          </mxGeometry>
        </mxCell>
        <mxCell id="DiJsurEuYQ1uCc_DvVhe-68" value="1" style="edgeLabel;html=1;align=center;verticalAlign=middle;resizable=0;points=[];" vertex="1" connectable="0" parent="DiJsurEuYQ1uCc_DvVhe-67">
          <mxGeometry x="-0.1937" y="3" relative="1" as="geometry">
            <mxPoint as="offset" />
          </mxGeometry>
        </mxCell>
        <mxCell id="DiJsurEuYQ1uCc_DvVhe-69" value="" style="endArrow=none;html=1;rounded=0;exitX=0;exitY=0.5;exitDx=0;exitDy=0;entryX=0.94;entryY=0.495;entryDx=0;entryDy=0;entryPerimeter=0;" edge="1" parent="1" source="DiJsurEuYQ1uCc_DvVhe-35" target="DiJsurEuYQ1uCc_DvVhe-66">
          <mxGeometry relative="1" as="geometry">
            <mxPoint x="590" y="379.5" as="sourcePoint" />
            <mxPoint x="500" y="380" as="targetPoint" />
          </mxGeometry>
        </mxCell>
        <mxCell id="DiJsurEuYQ1uCc_DvVhe-70" value="1" style="edgeLabel;html=1;align=center;verticalAlign=middle;resizable=0;points=[];" vertex="1" connectable="0" parent="DiJsurEuYQ1uCc_DvVhe-69">
          <mxGeometry x="-0.1937" y="3" relative="1" as="geometry">
            <mxPoint as="offset" />
          </mxGeometry>
        </mxCell>
        <mxCell id="DiJsurEuYQ1uCc_DvVhe-71" value="DNI" style="ellipse;whiteSpace=wrap;html=1;align=center;" vertex="1" parent="1">
          <mxGeometry x="40" y="-40" width="100" height="40" as="geometry" />
        </mxCell>
        <mxCell id="DiJsurEuYQ1uCc_DvVhe-72" value="Legajo" style="ellipse;whiteSpace=wrap;html=1;align=center;fontStyle=4;" vertex="1" parent="1">
          <mxGeometry x="130" y="-90" width="100" height="40" as="geometry" />
        </mxCell>
        <mxCell id="DiJsurEuYQ1uCc_DvVhe-73" value="" style="endArrow=none;html=1;rounded=0;exitX=0.5;exitY=1;exitDx=0;exitDy=0;" edge="1" parent="1" source="DiJsurEuYQ1uCc_DvVhe-71" target="DiJsurEuYQ1uCc_DvVhe-27">
          <mxGeometry relative="1" as="geometry">
            <mxPoint x="80" y="100" as="sourcePoint" />
            <mxPoint x="240" y="100" as="targetPoint" />
          </mxGeometry>
        </mxCell>
        <mxCell id="DiJsurEuYQ1uCc_DvVhe-74" value="" style="endArrow=none;html=1;rounded=0;entryX=0.5;entryY=0;entryDx=0;entryDy=0;" edge="1" parent="1" source="DiJsurEuYQ1uCc_DvVhe-72" target="DiJsurEuYQ1uCc_DvVhe-27">
          <mxGeometry relative="1" as="geometry">
            <mxPoint x="90" y="70" as="sourcePoint" />
            <mxPoint x="150" y="145" as="targetPoint" />
            <Array as="points" />
          </mxGeometry>
        </mxCell>
        <mxCell id="DiJsurEuYQ1uCc_DvVhe-75" value="Nombre" style="ellipse;whiteSpace=wrap;html=1;align=center;" vertex="1" parent="1">
          <mxGeometry x="-110" y="-20" width="100" height="40" as="geometry" />
        </mxCell>
        <mxCell id="DiJsurEuYQ1uCc_DvVhe-76" value="" style="endArrow=none;html=1;rounded=0;exitX=0.699;exitY=1.004;exitDx=0;exitDy=0;entryX=0;entryY=0.5;entryDx=0;entryDy=0;exitPerimeter=0;" edge="1" source="DiJsurEuYQ1uCc_DvVhe-75" parent="1" target="DiJsurEuYQ1uCc_DvVhe-27">
          <mxGeometry relative="1" as="geometry">
            <mxPoint x="50" y="167.5" as="sourcePoint" />
            <mxPoint x="110" y="202.5" as="targetPoint" />
          </mxGeometry>
        </mxCell>
        <mxCell id="DiJsurEuYQ1uCc_DvVhe-77" value="FechaNac" style="ellipse;whiteSpace=wrap;html=1;align=center;" vertex="1" parent="1">
          <mxGeometry x="-130" y="60" width="100" height="40" as="geometry" />
        </mxCell>
        <mxCell id="DiJsurEuYQ1uCc_DvVhe-78" value="" style="endArrow=none;html=1;rounded=0;entryX=0;entryY=0.75;entryDx=0;entryDy=0;exitX=1;exitY=0.5;exitDx=0;exitDy=0;" edge="1" source="DiJsurEuYQ1uCc_DvVhe-77" parent="1" target="DiJsurEuYQ1uCc_DvVhe-27">
          <mxGeometry relative="1" as="geometry">
            <mxPoint x="100" y="180" as="sourcePoint" />
            <mxPoint x="130" y="228" as="targetPoint" />
          </mxGeometry>
        </mxCell>
        <mxCell id="DiJsurEuYQ1uCc_DvVhe-85" value="Edad" style="ellipse;whiteSpace=wrap;html=1;align=center;dashed=1;" vertex="1" parent="1">
          <mxGeometry x="-110" y="115" width="100" height="40" as="geometry" />
        </mxCell>
        <mxCell id="DiJsurEuYQ1uCc_DvVhe-86" value="" style="endArrow=none;html=1;rounded=0;entryX=0;entryY=0.75;entryDx=0;entryDy=0;exitX=1;exitY=0.5;exitDx=0;exitDy=0;" edge="1" parent="1" source="DiJsurEuYQ1uCc_DvVhe-85">
          <mxGeometry relative="1" as="geometry">
            <mxPoint x="105" y="179" as="sourcePoint" />
            <mxPoint x="150" y="163" as="targetPoint" />
            <Array as="points" />
          </mxGeometry>
        </mxCell>
        <mxCell id="DiJsurEuYQ1uCc_DvVhe-87" value="Antiguedad" style="ellipse;whiteSpace=wrap;html=1;align=center;dashed=1;" vertex="1" parent="1">
          <mxGeometry x="270" y="40" width="100" height="40" as="geometry" />
        </mxCell>
        <mxCell id="DiJsurEuYQ1uCc_DvVhe-88" value="FechaIngreso" style="ellipse;whiteSpace=wrap;html=1;align=center;" vertex="1" parent="1">
          <mxGeometry x="220" y="-30" width="100" height="40" as="geometry" />
        </mxCell>
        <mxCell id="DiJsurEuYQ1uCc_DvVhe-89" value="" style="endArrow=none;html=1;rounded=0;entryX=0.75;entryY=0;entryDx=0;entryDy=0;exitX=0;exitY=1;exitDx=0;exitDy=0;" edge="1" parent="1" source="DiJsurEuYQ1uCc_DvVhe-88" target="DiJsurEuYQ1uCc_DvVhe-27">
          <mxGeometry relative="1" as="geometry">
            <mxPoint x="200" as="sourcePoint" />
            <mxPoint x="200" y="133" as="targetPoint" />
            <Array as="points" />
          </mxGeometry>
        </mxCell>
        <mxCell id="DiJsurEuYQ1uCc_DvVhe-90" value="" style="endArrow=none;html=1;rounded=0;entryX=1;entryY=0;entryDx=0;entryDy=0;exitX=0.072;exitY=0.69;exitDx=0;exitDy=0;exitPerimeter=0;" edge="1" parent="1" source="DiJsurEuYQ1uCc_DvVhe-87" target="DiJsurEuYQ1uCc_DvVhe-27">
          <mxGeometry relative="1" as="geometry">
            <mxPoint x="275" y="54" as="sourcePoint" />
            <mxPoint x="225" y="133" as="targetPoint" />
            <Array as="points" />
          </mxGeometry>
        </mxCell>
        <mxCell id="DiJsurEuYQ1uCc_DvVhe-96" value="Domicilio" style="ellipse;whiteSpace=wrap;html=1;align=center;" vertex="1" parent="1">
          <mxGeometry x="-120" y="218" width="100" height="40" as="geometry" />
        </mxCell>
        <mxCell id="DiJsurEuYQ1uCc_DvVhe-97" value="" style="endArrow=none;html=1;rounded=0;" edge="1" parent="1" source="DiJsurEuYQ1uCc_DvVhe-27" target="DiJsurEuYQ1uCc_DvVhe-96">
          <mxGeometry relative="1" as="geometry">
            <mxPoint x="-30" y="280" as="sourcePoint" />
            <mxPoint x="130" y="280" as="targetPoint" />
          </mxGeometry>
        </mxCell>
        <mxCell id="DiJsurEuYQ1uCc_DvVhe-100" value="Dom_Piso" style="ellipse;whiteSpace=wrap;html=1;align=center;" vertex="1" parent="1">
          <mxGeometry x="-370" y="75" width="100" height="40" as="geometry" />
        </mxCell>
        <mxCell id="DiJsurEuYQ1uCc_DvVhe-101" value="Dom_Nro" style="ellipse;whiteSpace=wrap;html=1;align=center;" vertex="1" parent="1">
          <mxGeometry x="-330" y="183" width="100" height="40" as="geometry" />
        </mxCell>
        <mxCell id="DiJsurEuYQ1uCc_DvVhe-102" value="Dom_Calle" style="ellipse;whiteSpace=wrap;html=1;align=center;" vertex="1" parent="1">
          <mxGeometry x="-330" y="270" width="100" height="40" as="geometry" />
        </mxCell>
        <mxCell id="DiJsurEuYQ1uCc_DvVhe-103" value="Dom_Depto" style="ellipse;whiteSpace=wrap;html=1;align=center;" vertex="1" parent="1">
          <mxGeometry x="-310" y="-10" width="100" height="40" as="geometry" />
        </mxCell>
        <mxCell id="DiJsurEuYQ1uCc_DvVhe-104" value="" style="endArrow=none;html=1;rounded=0;exitX=0;exitY=0.5;exitDx=0;exitDy=0;" edge="1" parent="1" source="DiJsurEuYQ1uCc_DvVhe-96" target="DiJsurEuYQ1uCc_DvVhe-101">
          <mxGeometry relative="1" as="geometry">
            <mxPoint x="113" y="254.5" as="sourcePoint" />
            <mxPoint x="20" y="305.5" as="targetPoint" />
          </mxGeometry>
        </mxCell>
        <mxCell id="DiJsurEuYQ1uCc_DvVhe-105" value="" style="endArrow=none;html=1;rounded=0;exitX=0;exitY=1;exitDx=0;exitDy=0;entryX=1;entryY=1;entryDx=0;entryDy=0;" edge="1" parent="1" source="DiJsurEuYQ1uCc_DvVhe-96" target="DiJsurEuYQ1uCc_DvVhe-100">
          <mxGeometry relative="1" as="geometry">
            <mxPoint x="-37" y="239" as="sourcePoint" />
            <mxPoint x="-130" y="290" as="targetPoint" />
          </mxGeometry>
        </mxCell>
        <mxCell id="DiJsurEuYQ1uCc_DvVhe-106" value="" style="endArrow=none;html=1;rounded=0;exitX=0;exitY=0.5;exitDx=0;exitDy=0;entryX=1;entryY=1;entryDx=0;entryDy=0;" edge="1" parent="1" source="DiJsurEuYQ1uCc_DvVhe-96" target="DiJsurEuYQ1uCc_DvVhe-103">
          <mxGeometry relative="1" as="geometry">
            <mxPoint x="-67" y="240" as="sourcePoint" />
            <mxPoint x="-160" y="291" as="targetPoint" />
          </mxGeometry>
        </mxCell>
        <mxCell id="DiJsurEuYQ1uCc_DvVhe-107" value="" style="endArrow=none;html=1;rounded=0;exitX=0.317;exitY=0.905;exitDx=0;exitDy=0;exitPerimeter=0;" edge="1" parent="1" source="DiJsurEuYQ1uCc_DvVhe-96" target="DiJsurEuYQ1uCc_DvVhe-102">
          <mxGeometry relative="1" as="geometry">
            <mxPoint x="-100" y="238" as="sourcePoint" />
            <mxPoint x="31" y="369" as="targetPoint" />
          </mxGeometry>
        </mxCell>
        <mxCell id="DiJsurEuYQ1uCc_DvVhe-108" value="Telefono" style="ellipse;shape=doubleEllipse;margin=3;whiteSpace=wrap;html=1;align=center;" vertex="1" parent="1">
          <mxGeometry x="-30" y="320" width="100" height="40" as="geometry" />
        </mxCell>
        <mxCell id="DiJsurEuYQ1uCc_DvVhe-110" value="" style="endArrow=none;html=1;rounded=0;exitX=0.636;exitY=0.029;exitDx=0;exitDy=0;exitPerimeter=0;" edge="1" parent="1" source="DiJsurEuYQ1uCc_DvVhe-108" target="DiJsurEuYQ1uCc_DvVhe-27">
          <mxGeometry relative="1" as="geometry">
            <mxPoint x="-10" y="289" as="sourcePoint" />
            <mxPoint x="150" y="289" as="targetPoint" />
          </mxGeometry>
        </mxCell>
        <mxCell id="DiJsurEuYQ1uCc_DvVhe-111" value="" style="resizable=0;html=1;whiteSpace=wrap;align=right;verticalAlign=bottom;" connectable="0" vertex="1" parent="DiJsurEuYQ1uCc_DvVhe-110">
          <mxGeometry x="1" relative="1" as="geometry" />
        </mxCell>
      </root>
    </mxGraphModel>
  </diagram>
</mxfile>
